<svg width="22" height="16" viewBox="0 0 22 16" fill="none" xmlns="http://www.w3.org/2000/svg">
<path fill-rule="evenodd" clip-rule="evenodd" d="M15.67 9.12988C17.04 10.0599 18 11.3199 18 12.9999V15.9999H21C21.55 15.9999 22 15.5499 22 14.9999V12.9999C22 10.8199 18.43 9.52988 15.67 9.12988Z" fill="#5A5B9E"/>
<path d="M8 8C10.2091 8 12 6.20914 12 4C12 1.79086 10.2091 0 8 0C5.79086 0 4 1.79086 4 4C4 6.20914 5.79086 8 8 8Z" fill="#5A5B9E"/>
<path fill-rule="evenodd" clip-rule="evenodd" d="M14 8C16.21 8 18 6.21 18 4C18 1.79 16.21 0 14 0C13.53 0 13.09 0.0999998 12.67 0.24C13.5 1.27 14 2.58 14 4C14 5.42 13.5 6.73 12.67 7.76C13.09 7.9 13.53 8 14 8Z" fill="#5A5B9E"/>
<path fill-rule="evenodd" clip-rule="evenodd" d="M8 9C5.33 9 0 10.34 0 13V15C0 15.55 0.45 16 1 16H15C15.55 16 16 15.55 16 15V13C16 10.34 10.67 9 8 9Z" fill="#5A5B9E"/>
</svg>
